<svg width="667" height="324" viewBox="0 0 667 324" fill="none" xmlns="http://www.w3.org/2000/svg">
<path d="M60.8678 69.7428L598.538 67.5878" stroke="white" stroke-opacity="0.8" stroke-width="1.06667"/>
<path d="M57.6353 15.868L93.1927 70.8203L110.433 262.615" stroke="white" stroke-opacity="0.8" stroke-width="1.06667"/>
<path d="M139.525 263.692L127.673 70.8204L97.5026 16.9456" stroke="white" stroke-opacity="0.8" stroke-width="1.06667"/>
<path d="M164.307 263.692L155.687 69.7429L139.525 16.9456" stroke="white" stroke-opacity="0.8" stroke-width="1.06667"/>
<path d="M168.617 18.023L185.857 71.8978L190.167 264.77" stroke="white" stroke-opacity="0.8" stroke-width="1.06667"/>
<path d="M200.942 14.7905L216.027 68.6653L220.337 262.615" stroke="white" stroke-opacity="0.8" stroke-width="1.06667"/>
<path d="M235.422 14.7905L248.352 67.5878L250.507 264.77" stroke="white" stroke-opacity="0.8" stroke-width="1.06667"/>
<path d="M268.825 11.558L277.444 68.6653L279.599 262.615" stroke="white" stroke-opacity="0.8" stroke-width="1.06667"/>
<path d="M310.847 10.4805L311.924 70.8203L310.847 263.692" stroke="white" stroke-opacity="0.8" stroke-width="1.06667"/>
<path d="M351.792 11.558L339.939 67.5878L341.017 263.692" stroke="white" stroke-opacity="0.8" stroke-width="1.06667"/>
<path d="M391.659 11.558L372.264 67.5878L371.187 263.692" stroke="white" stroke-opacity="0.8" stroke-width="1.06667"/>
<path d="M420.751 12.6356L401.357 68.6653L405.666 263.692" stroke="white" stroke-opacity="0.8" stroke-width="1.06667"/>
<path d="M456.309 15.868L432.604 69.7428L434.759 260.46" stroke="white" stroke-opacity="0.8" stroke-width="1.06667"/>
<path d="M492.944 14.7905L469.239 66.5103L466.006 261.537" stroke="white" stroke-opacity="0.8" stroke-width="1.06667"/>
<path d="M529.579 15.868L499.409 67.5878L496.176 262.615" stroke="white" stroke-opacity="0.8" stroke-width="1.06667"/>
<path d="M567.291 13.7131L533.889 66.5104L524.191 260.46" stroke="white" stroke-opacity="0.8" stroke-width="1.06667"/>
<path d="M592.073 13.7131L562.981 67.5879L550.051 261.537" stroke="white" stroke-opacity="0.8" stroke-width="1.06667"/>
<path d="M626.553 303.559L633.018 28.798L30.6979 36.3405V305.714" stroke="white" stroke-opacity="0.8" stroke-width="1.06667"/>
<path d="M46.8603 291.707L47.9378 55.7354L609.313 51.4254L603.926 288.475" stroke="white" stroke-opacity="0.8" stroke-width="1.06667"/>
<path d="M16.6904 63.2778L61.9453 91.2927L598.538 89.1377L649.181 52.5029" stroke="white" stroke-opacity="0.8" stroke-width="1.06667"/>
<path d="M10.2255 97.7577L68.4103 117.153L594.228 110.688L648.103 93.4478" stroke="white" stroke-opacity="0.8" stroke-width="1.06667"/>
<path d="M12.3804 137.625L69.4877 143.013L590.996 132.238L648.103 119.308" stroke="white" stroke-opacity="0.8" stroke-width="1.06667"/>
<path d="M10.2255 164.563L71.6427 163.485L585.608 160.253L649.181 153.788" stroke="white" stroke-opacity="0.8" stroke-width="1.06667"/>
<path d="M15.6129 200.12L74.8752 183.957L584.531 179.647L648.103 192.577" stroke="white" stroke-opacity="0.8" stroke-width="1.06667"/>
<path d="M10.2255 237.832L78.1077 209.817L581.298 206.585L644.871 237.832" stroke="white" stroke-opacity="0.8" stroke-width="1.06667"/>
<path d="M13.4579 282.01L83.4952 239.987L572.678 232.445L647.026 269.08" stroke="white" stroke-opacity="0.8" stroke-width="1.06667"/>
<path d="M15.6129 18.023L61.9452 74.0528L86.7276 264.77" stroke="#FD3705" stroke-width="7.46667"/>
<path d="M15.6129 18.023L61.9452 74.0528L86.7276 264.77" stroke="url(#paint0_linear_3_2)" stroke-opacity="0.5" stroke-width="7.46667"/>
<path d="M643.793 11.558L598.538 66.5103L568.368 260.46" stroke="#FD3705" stroke-width="7.46667"/>
<path d="M643.793 11.558L598.538 66.5103L568.368 260.46" stroke="url(#paint1_linear_3_2)" stroke-opacity="0.5" stroke-width="7.46667"/>
<path d="M21.2672 49.9748V319.515L3.35791 318.656L2.8621 25.1494L2.86198 25.079L2.85754 25.0087C2.44643 18.4999 2.17331 13.8469 2.34547 10.4355C2.51973 6.98252 3.13844 5.36433 4.00007 4.459C4.85857 3.55696 6.40215 2.89566 9.71095 2.56965C12.6754 2.27757 16.5775 2.28621 21.8485 2.29787C22.4033 2.2991 22.9733 2.30036 23.559 2.30131L638.344 3.29637L638.411 3.29648L638.479 3.29261L638.821 3.273C646.037 2.85904 651.263 2.55924 655.135 2.73963C659.117 2.92509 661.085 3.60963 662.214 4.65847C663.326 5.69034 664.096 7.51603 664.453 11.3071C664.789 14.8833 664.724 19.6772 664.635 26.2435L664.621 27.2625L660.717 318.755L642.793 320.475L643.766 48.9762C644.164 42.7273 644.468 37.8824 644.302 34.2265C644.138 30.602 643.505 27.5739 641.511 25.4278C639.506 23.2688 636.57 22.4787 633.104 22.1245C629.898 21.7969 625.729 21.8063 620.512 21.818C620.039 21.8191 619.557 21.8202 619.067 21.8211L47.2086 22.8196C40.8335 22.3367 35.9744 22.1158 32.3433 22.4842C28.6789 22.8559 25.7752 23.8729 23.8725 26.3179C22.0674 28.6375 21.5286 31.8135 21.3299 35.4713C21.1906 38.0355 21.2142 41.1538 21.2419 44.8052C21.2541 46.4242 21.2672 48.148 21.2672 49.9748Z" fill="#FD3705" stroke="#FD3705" stroke-width="4.58667"/>
<path d="M21 318.911L86.7574 262.268L568.619 259L643 320" stroke="#FD3705" stroke-width="7.78667"/>
<path d="M21 318.911L86.7574 262.268L568.619 259L643 320" stroke="url(#paint2_linear_3_2)" stroke-width="7.78667"/>
<defs>
<linearGradient id="paint0_linear_3_2" x1="51.1703" y1="18.023" x2="51.1703" y2="264.77" gradientUnits="userSpaceOnUse">
<stop stop-opacity="0"/>
<stop offset="0.0466666" stop-opacity="0.3"/>
<stop offset="0.791667" stop-opacity="0.35"/>
<stop offset="1" stop-opacity="0"/>
</linearGradient>
<linearGradient id="paint1_linear_3_2" x1="606.081" y1="11.558" x2="606.081" y2="260.46" gradientUnits="userSpaceOnUse">
<stop stop-opacity="0"/>
<stop offset="0.0466666" stop-opacity="0.3"/>
<stop offset="0.791667" stop-opacity="0.35"/>
<stop offset="1" stop-opacity="0"/>
</linearGradient>
<linearGradient id="paint2_linear_3_2" x1="21" y1="289.5" x2="643" y2="289.5" gradientUnits="userSpaceOnUse">
<stop stop-opacity="0"/>
<stop offset="0.1" stop-opacity="0.1"/>
<stop offset="0.9" stop-opacity="0.1"/>
<stop offset="1" stop-opacity="0"/>
</linearGradient>
</defs>
</svg>
